<svg id="svg" version="1.1" width="400" height="400" viewBox="0 0 400 400" xmlns="http://www.w3.org/2000/svg" xmlns:xlink="http://www.w3.org/1999/xlink">
<g id="svgg">
<path id="path0" d="M190.665 25.096 C 190.574 25.178,188.905 25.342,186.955 25.461 C 146.079 27.950,104.121 47.518,74.775 77.777 C 42.243 111.321,25.188 153.231,25.171 199.667 C 25.138 290.171,92.217 364.653,182.333 374.176 C 188.651 374.843,191.695 374.945,202.167 374.841 C 213.700 374.726,215.362 374.607,226.000 373.148 C 305.409 362.251,368.941 293.634,374.589 212.667 C 375.064 205.854,374.765 183.363,374.185 182.350 C 374.128 182.249,373.982 181.042,373.861 179.667 C 371.734 155.427,360.613 125.314,345.361 102.500 C 316.679 59.597,267.218 29.939,217.500 25.831 C 216.033 25.710,214.458 25.537,214.000 25.448 C 212.909 25.234,190.880 24.903,190.665 25.096 M217.500 33.467 C 315.402 45.126,381.336 132.760,364.815 229.266 C 352.125 303.394,288.681 361.153,213.631 366.901 C 102.396 375.421,14.047 276.076,35.855 167.000 C 49.764 97.430,106.582 43.897,176.833 34.172 C 188.040 32.621,207.554 32.283,217.500 33.467 M174.667 167.866 L 174.667 183.731 180.583 183.595 C 192.142 183.328,197.125 178.582,197.131 167.833 C 197.137 156.883,191.841 152.013,179.917 152.004 L 174.667 152.000 174.667 167.866 M204.333 167.820 L 204.333 183.667 206.667 183.667 C 208.657 183.667,209.004 183.581,209.024 183.083 C 209.038 182.762,209.049 178.525,209.050 173.667 C 209.051 168.808,209.144 165.058,209.255 165.333 C 209.366 165.608,210.595 169.797,211.985 174.641 C 213.375 179.485,214.659 183.497,214.839 183.557 C 215.019 183.617,216.367 179.428,217.833 174.249 L 220.500 164.833 220.589 174.250 L 220.677 183.667 223.005 183.667 L 225.333 183.667 225.333 167.833 L 225.333 152.000 222.843 152.000 L 220.352 152.000 219.857 153.750 C 219.585 154.712,218.444 158.948,217.321 163.162 C 216.198 167.376,215.174 171.011,215.045 171.241 C 214.916 171.471,213.678 167.273,212.292 161.913 L 209.773 152.167 207.053 152.070 L 204.333 151.973 204.333 167.820 M186.660 157.750 C 192.969 160.973,193.130 174.491,186.897 177.733 C 185.817 178.295,184.896 178.464,182.837 178.480 L 180.174 178.500 180.149 168.000 C 180.135 162.225,180.180 157.387,180.248 157.250 C 180.553 156.638,185.191 157.000,186.660 157.750 M171.133 207.133 C 170.002 208.265,170.000 208.272,170.000 211.467 L 170.000 214.667 200.000 214.667 L 230.000 214.667 230.000 211.467 C 230.000 208.272,229.998 208.265,228.867 207.133 L 227.733 206.000 200.000 206.000 L 172.267 206.000 171.133 207.133 M170.139 216.972 C 169.762 217.349,170.018 258.218,170.400 258.600 C 171.027 259.227,229.107 259.175,229.628 258.546 C 229.902 258.217,229.982 252.427,229.919 237.478 L 229.833 216.864 200.056 216.849 C 183.678 216.840,170.215 216.896,170.139 216.972 M192.568 230.690 C 194.731 232.902,196.541 234.824,196.590 234.960 C 196.675 235.192,193.130 238.710,189.588 241.911 C 187.968 243.375,187.203 243.478,186.888 242.275 C 186.749 241.744,187.436 240.899,190.022 238.414 C 194.008 234.583,193.985 235.289,190.250 231.454 C 186.956 228.072,186.836 227.908,187.125 227.156 C 187.564 226.011,188.746 226.778,192.568 230.690 M214.172 241.683 C 214.664 243.235,214.146 243.333,205.483 243.333 C 196.716 243.333,195.862 243.170,196.679 241.644 C 197.232 240.611,213.843 240.648,214.172 241.683 " 
stroke="none" fill="#5cacbc" fill-rule="evenodd"></path>
<path id="path1" d="M0.000 200.000 L 0.000 400.000 200.000 400.000 L 400.000 400.000 400.000 200.000 L 400.000 0.000 200.000 0.000 L 0.000 0.000 0.000 200.000 M214.000 25.448 C 214.458 25.537,216.033 25.710,217.500 25.831 C 267.218 29.939,316.679 59.597,345.361 102.500 C 360.613 125.314,371.734 155.427,373.861 179.667 C 373.982 181.042,374.128 182.249,374.185 182.350 C 374.765 183.363,375.064 205.854,374.589 212.667 C 368.941 293.634,305.409 362.251,226.000 373.148 C 215.362 374.607,213.700 374.726,202.167 374.841 C 191.695 374.945,188.651 374.843,182.333 374.176 C 77.900 363.140,6.690 264.656,29.043 162.172 C 45.342 87.442,111.637 30.048,186.955 25.461 C 188.905 25.342,190.574 25.178,190.665 25.096 C 190.880 24.903,212.909 25.234,214.000 25.448 M185.667 33.173 C 86.614 42.304,17.624 132.887,35.375 230.500 C 52.580 325.106,147.314 385.875,240.944 362.368 C 338.472 337.882,392.709 232.254,355.782 138.720 C 332.726 80.320,281.124 41.044,217.500 33.467 C 211.504 32.753,192.161 32.575,185.667 33.173 M186.833 152.453 C 199.945 155.956,201.036 177.737,188.349 182.730 C 186.758 183.357,185.673 183.477,180.583 183.595 L 174.667 183.731 174.667 167.866 L 174.667 152.000 179.917 152.004 C 183.230 152.006,185.782 152.172,186.833 152.453 M212.292 161.913 C 213.678 167.273,214.916 171.471,215.045 171.241 C 215.174 171.011,216.198 167.376,217.321 163.162 C 218.444 158.948,219.585 154.712,219.857 153.750 L 220.352 152.000 222.843 152.000 L 225.333 152.000 225.333 167.833 L 225.333 183.667 223.005 183.667 L 220.677 183.667 220.589 174.250 L 220.500 164.833 217.833 174.249 C 216.367 179.428,215.019 183.617,214.839 183.557 C 214.659 183.497,213.375 179.485,211.985 174.641 C 210.595 169.797,209.366 165.608,209.255 165.333 C 209.144 165.058,209.051 168.808,209.050 173.667 C 209.049 178.525,209.038 182.762,209.024 183.083 C 209.004 183.581,208.657 183.667,206.667 183.667 L 204.333 183.667 204.333 167.820 L 204.333 151.973 207.053 152.070 L 209.773 152.167 212.292 161.913 M180.248 157.250 C 180.180 157.387,180.135 162.225,180.149 168.000 L 180.174 178.500 182.837 178.480 C 188.533 178.437,191.380 174.899,191.404 167.833 C 191.427 160.874,188.344 157.000,182.782 157.000 C 181.457 157.000,180.317 157.112,180.248 157.250 M228.867 207.133 C 229.998 208.265,230.000 208.272,230.000 211.467 L 230.000 214.667 200.000 214.667 L 170.000 214.667 170.000 211.467 C 170.000 208.272,170.002 208.265,171.133 207.133 L 172.267 206.000 200.000 206.000 L 227.733 206.000 228.867 207.133 M229.919 237.478 C 229.982 252.427,229.902 258.217,229.628 258.546 C 229.107 259.175,171.027 259.227,170.400 258.600 C 170.018 258.218,169.762 217.349,170.139 216.972 C 170.215 216.896,183.678 216.840,200.056 216.849 L 229.833 216.864 229.919 237.478 M187.125 227.156 C 186.836 227.908,186.956 228.072,190.250 231.454 C 193.985 235.289,194.008 234.583,190.022 238.414 C 187.436 240.899,186.749 241.744,186.888 242.275 C 187.203 243.478,187.968 243.375,189.588 241.911 C 193.130 238.710,196.675 235.192,196.590 234.960 C 196.541 234.824,194.731 232.902,192.568 230.690 C 188.746 226.778,187.564 226.011,187.125 227.156 M196.679 241.644 C 195.862 243.170,196.716 243.333,205.483 243.333 C 214.146 243.333,214.664 243.235,214.172 241.683 C 213.843 240.648,197.232 240.611,196.679 241.644 " 
stroke="none" 
fill="none" fill-rule="evenodd">
</path></g></svg>
